<svg xmlns="http://www.w3.org/2000/svg" xmlns:xlink="http://www.w3.org/1999/xlink" viewBox="0 0 430 430" width="430" height="430" preserveAspectRatio="xMidYMid meet" style="width: 100%; height: 100%; transform: translate3d(0px, 0px, 0px); content-visibility: visible;"><defs><clipPath id="__lottie_element_10"><rect width="430" height="430" x="0" y="0"/></clipPath><clipPath id="__lottie_element_12"><path d="M0,0 L430,0 L430,430 L0,430z"/></clipPath><g id="__lottie_element_23"><g transform="matrix(1,0,0,1,199.60499572753906,217.2790069580078)" opacity="1" style="display: block;"><g opacity="1" transform="matrix(1,0,0,1,0,0)"><path fill="rgb(235,230,239)" fill-opacity="1" d=" M168.23399353027344,-161.28900146484375 C164.0260009765625,-171.4510040283203 52.676998138427734,-172.5030059814453 41.678001403808594,-172.5019989013672 C-2.746000051498413,-172.5019989013672 -45.15399932861328,-149.8520050048828 -76.56600189208984,-118.44000244140625 C-107.97799682617188,-87.02799987792969 -124.625,-44.41299819946289 -124.625,0.010999999940395355 C-124.625,44.435001373291016 -107.84200286865234,88.37899780273438 -76.45500183105469,119.81700134277344 C-44.60100173950195,151.72300720214844 -2.3989999294281006,177.0019989013672 42.025001525878906,177.0019989013672 C19.812999725341797,177.0019989013672 133.74099731445312,140.4409942626953 154.76600646972656,133.2790069580078 C190.60899353027344,121.06900024414062 233.9720001220703,-30.27199935913086 241.74899291992188,-38.04899978637695 C249.5260009765625,-45.82600021362305 172.44200134277344,-151.1269989013672 168.23399353027344,-161.28900146484375z"/></g></g></g><g id="__lottie_element_32"><g transform="matrix(1,0,0,1,199.60499572753906,217.2790069580078)" opacity="1" style="display: block;"><g opacity="1" transform="matrix(1,0,0,1,0,0)"><path fill="rgb(235,230,239)" fill-opacity="1" d=" M168.23399353027344,-161.28900146484375 C164.0260009765625,-171.4510040283203 52.676998138427734,-172.5030059814453 41.678001403808594,-172.5019989013672 C-2.746000051498413,-172.5019989013672 -45.15399932861328,-149.8520050048828 -76.56600189208984,-118.44000244140625 C-107.97799682617188,-87.02799987792969 -124.625,-44.41299819946289 -124.625,0.010999999940395355 C-124.625,44.435001373291016 -107.84200286865234,88.37899780273438 -76.45500183105469,119.81700134277344 C-44.60100173950195,151.72300720214844 -2.3989999294281006,177.0019989013672 42.025001525878906,177.0019989013672 C19.812999725341797,177.0019989013672 133.74099731445312,140.4409942626953 154.76600646972656,133.2790069580078 C190.60899353027344,121.06900024414062 233.9720001220703,-30.27199935913086 241.74899291992188,-38.04899978637695 C249.5260009765625,-45.82600021362305 172.44200134277344,-151.1269989013672 168.23399353027344,-161.28900146484375z"/></g></g></g><filter id="__lottie_element_41" filterUnits="objectBoundingBox" x="0%" y="0%" width="100%" height="100%"><feComponentTransfer in="SourceGraphic"><feFuncA type="table" tableValues="1.0 0.0"/></feComponentTransfer></filter><mask id="__lottie_element_32_2" mask-type="alpha"><g filter="url(#__lottie_element_41)"><rect width="430" height="430" x="0" y="0" fill="#ffffff" opacity="0"/><use xmlns:ns1="http://www.w3.org/1999/xlink" ns1:href="#__lottie_element_32"/></g></mask><filter id="__lottie_element_42" filterUnits="objectBoundingBox" x="0%" y="0%" width="100%" height="100%"><feComponentTransfer in="SourceGraphic"><feFuncA type="table" tableValues="1.0 0.0"/></feComponentTransfer></filter><mask id="__lottie_element_23_2" mask-type="alpha"><g filter="url(#__lottie_element_42)"><rect width="430" height="430" x="0" y="0" fill="#ffffff" opacity="0"/><use xmlns:ns2="http://www.w3.org/1999/xlink" ns2:href="#__lottie_element_23"/></g></mask><clipPath id="__lottie_element_93"><path d="M0,0 L430,0 L430,430 L0,430z"/></clipPath><g id="__lottie_element_103"><g transform="matrix(1.014764428138733,0.00010626588482409716,-0.00010626588482409716,1.014764428138733,199.6060028076172,217.27699279785156)" opacity="1" style="display: block;"><g opacity="1" transform="matrix(1,0,0,1,0,0)"><path fill="rgb(235,230,239)" fill-opacity="1" d=" M168.23399353027344,-161.28900146484375 C164.0260009765625,-171.4510040283203 52.676998138427734,-172.5030059814453 41.678001403808594,-172.5019989013672 C-2.746000051498413,-172.5019989013672 -45.15399932861328,-149.8520050048828 -76.56600189208984,-118.44000244140625 C-107.97799682617188,-87.02799987792969 -124.625,-44.41299819946289 -124.625,0.010999999940395355 C-124.625,44.435001373291016 -107.84200286865234,88.37899780273438 -76.45500183105469,119.81700134277344 C-44.60100173950195,151.72300720214844 -2.3989999294281006,177.0019989013672 42.025001525878906,177.0019989013672 C19.812999725341797,177.0019989013672 133.74099731445312,140.4409942626953 154.76600646972656,133.2790069580078 C190.60899353027344,121.06900024414062 233.9720001220703,-30.27199935913086 241.74899291992188,-38.04899978637695 C249.5260009765625,-45.82600021362305 172.44200134277344,-151.1269989013672 168.23399353027344,-161.28900146484375z"/></g></g></g><g id="__lottie_element_113"><g transform="matrix(1.014764428138733,0.00010626588482409716,-0.00010626588482409716,1.014764428138733,199.6060028076172,217.27699279785156)" opacity="1" style="display: block;"><g opacity="1" transform="matrix(1,0,0,1,0,0)"><path fill="rgb(235,230,239)" fill-opacity="1" d=" M168.23399353027344,-161.28900146484375 C164.0260009765625,-171.4510040283203 52.676998138427734,-172.5030059814453 41.678001403808594,-172.5019989013672 C-2.746000051498413,-172.5019989013672 -45.15399932861328,-149.8520050048828 -76.56600189208984,-118.44000244140625 C-107.97799682617188,-87.02799987792969 -124.625,-44.41299819946289 -124.625,0.010999999940395355 C-124.625,44.435001373291016 -107.84200286865234,88.37899780273438 -76.45500183105469,119.81700134277344 C-44.60100173950195,151.72300720214844 -2.3989999294281006,177.0019989013672 42.025001525878906,177.0019989013672 C19.812999725341797,177.0019989013672 133.74099731445312,140.4409942626953 154.76600646972656,133.2790069580078 C190.60899353027344,121.06900024414062 233.9720001220703,-30.27199935913086 241.74899291992188,-38.04899978637695 C249.5260009765625,-45.82600021362305 172.44200134277344,-151.1269989013672 168.23399353027344,-161.28900146484375z"/></g></g></g><filter id="__lottie_element_116" filterUnits="objectBoundingBox" x="0%" y="0%" width="100%" height="100%"><feComponentTransfer in="SourceGraphic"><feFuncA type="table" tableValues="1.0 0.0"/></feComponentTransfer></filter><mask id="__lottie_element_113_2" mask-type="alpha"><g filter="url(#__lottie_element_116)"><rect width="430" height="430" x="0" y="0" fill="#ffffff" opacity="0"/><use xmlns:ns3="http://www.w3.org/1999/xlink" ns3:href="#__lottie_element_113"/></g></mask><filter id="__lottie_element_117" filterUnits="objectBoundingBox" x="0%" y="0%" width="100%" height="100%"><feComponentTransfer in="SourceGraphic"><feFuncA type="table" tableValues="1.0 0.0"/></feComponentTransfer></filter><mask id="__lottie_element_103_2" mask-type="alpha"><g filter="url(#__lottie_element_117)"><rect width="430" height="430" x="0" y="0" fill="#ffffff" opacity="0"/><use xmlns:ns4="http://www.w3.org/1999/xlink" ns4:href="#__lottie_element_103"/></g></mask></defs><g clip-path="url(#__lottie_element_10)"><g clip-path="url(#__lottie_element_12)" transform="matrix(1,0,0,1,0,0)" opacity="1" style="display: none;"><g transform="matrix(0.9840237498283386,-0.17803728580474854,0.17803728580474854,0.9840237498283386,246.65135192871094,209.1976318359375)" opacity="1" style="display: block;"><g opacity="1" transform="matrix(1,0,0,1,0,0)"><path class="secondary" fill="rgb(58,51,71)" fill-opacity="1" d=" M-32.05400085449219,167.35400390625 C60.37300109863281,167.35400390625 135.2989959716797,92.427001953125 135.2989959716797,0 C135.2989959716797,-92.427001953125 60.37300109863281,-167.35400390625 -32.05400085449219,-167.35400390625 C-61.63100051879883,-167.35400390625 14.345999717712402,-89.99299621582031 -0.8370000123977661,-67.7760009765625 C-33.099998474121094,-20.565000534057617 -135.2989959716797,-7.823999881744385 -135.2989959716797,-7.823999881744385 C-135.2989959716797,84.60299682617188 -124.48100280761719,167.35400390625 -32.05400085449219,167.35400390625z"/></g></g><g mask="url(#__lottie_element_23_2)" style="mix-blend-mode: multiply; display: block;"><g transform="matrix(0.9840237498283386,-0.17803728580474854,0.17803728580474854,0.9840237498283386,246.65135192871094,209.1976318359375)" opacity="0.5"><g opacity="1" transform="matrix(1,0,0,1,0,0)"><path class="secondary" fill="rgb(58,51,71)" fill-opacity="1" d=" M-32.05400085449219,167.35400390625 C60.37300109863281,167.35400390625 135.2989959716797,92.427001953125 135.2989959716797,0 C135.2989959716797,-92.427001953125 60.37300109863281,-167.35400390625 -32.05400085449219,-167.35400390625 C-61.63100051879883,-167.35400390625 14.345999717712402,-89.99299621582031 -0.8370000123977661,-67.7760009765625 C-33.099998474121094,-20.565000534057617 -135.2989959716797,-7.823999881744385 -135.2989959716797,-7.823999881744385 C-135.2989959716797,84.60299682617188 -124.48100280761719,167.35400390625 -32.05400085449219,167.35400390625z"/></g></g></g><g transform="matrix(0.9840237498283386,-0.17803728580474854,0.17803728580474854,0.9840237498283386,173.7765350341797,222.47824096679688)" opacity="1" style="display: block;"><g opacity="1" transform="matrix(1,0,0,1,0,0)"><path class="primary" fill="rgb(235,230,239)" fill-opacity="1" d=" M119.25299835205078,-51.69900131225586 C123.46099853515625,-61.861000061035156 125.6259994506836,-72.7509994506836 125.625,-83.75 C125.625,-83.75 125.625,-83.75 125.625,-83.75 C125.6259994506836,-94.7490005493164 123.46099853515625,-105.63899993896484 119.25299835205078,-115.8010025024414 C115.04499816894531,-125.96299743652344 108.875,-135.1959991455078 101.0979995727539,-142.97300720214844 C93.32099914550781,-150.75 84.08899688720703,-156.9199981689453 73.927001953125,-161.1280059814453 C63.76499938964844,-165.33599853515625 52.874000549316406,-167.50100708007812 41.875,-167.5 C-2.5490000247955322,-167.5 -45.15399932861328,-149.8520050048828 -76.56600189208984,-118.44000244140625 C-107.97799682617188,-87.02799987792969 -125.625,-44.42399978637695 -125.625,0 C-125.625,44.42399978637695 -107.97799682617188,87.02799987792969 -76.56600189208984,118.44000244140625 C-45.15399932861328,149.8520050048828 -2.5490000247955322,167.5 41.875,167.5 C19.663000106811523,167.5 -1.6390000581741333,158.67599487304688 -17.344999313354492,142.97000122070312 C-33.05099868774414,127.26399993896484 -41.875,105.96199798583984 -41.875,83.75 C-41.875,61.53799819946289 -33.05099868774414,40.236000061035156 -17.344999313354492,24.530000686645508 C-1.6390000581741333,8.824000358581543 19.663000106811523,0 41.875,0 C52.874000549316406,0.0010000000474974513 63.76499938964844,-2.1640000343322754 73.927001953125,-6.372000217437744 C84.08899688720703,-10.579999923706055 93.32099914550781,-16.75 101.0979995727539,-24.527000427246094 C108.875,-32.30400085449219 115.04499816894531,-41.5369987487793 119.25299835205078,-51.69900131225586z"/></g></g><g mask="url(#__lottie_element_32_2)" style="mix-blend-mode: multiply; display: block;"><g transform="matrix(0.9840237498283386,-0.17803728580474854,0.17803728580474854,0.9840237498283386,173.7765350341797,222.47824096679688)" opacity="0.5"><g opacity="1" transform="matrix(1,0,0,1,0,0)"><path class="primary" fill="rgb(235,230,239)" fill-opacity="1" d=" M119.25299835205078,-51.69900131225586 C123.46099853515625,-61.861000061035156 125.6259994506836,-72.7509994506836 125.625,-83.75 C125.625,-83.75 125.625,-83.75 125.625,-83.75 C125.6259994506836,-94.7490005493164 123.46099853515625,-105.63899993896484 119.25299835205078,-115.8010025024414 C115.04499816894531,-125.96299743652344 108.875,-135.1959991455078 101.0979995727539,-142.97300720214844 C93.32099914550781,-150.75 84.08899688720703,-156.9199981689453 73.927001953125,-161.1280059814453 C63.76499938964844,-165.33599853515625 52.874000549316406,-167.50100708007812 41.875,-167.5 C-2.5490000247955322,-167.5 -45.15399932861328,-149.8520050048828 -76.56600189208984,-118.44000244140625 C-107.97799682617188,-87.02799987792969 -125.625,-44.42399978637695 -125.625,0 C-125.625,44.42399978637695 -107.97799682617188,87.02799987792969 -76.56600189208984,118.44000244140625 C-45.15399932861328,149.8520050048828 -2.5490000247955322,167.5 41.875,167.5 C19.663000106811523,167.5 -1.6390000581741333,158.67599487304688 -17.344999313354492,142.97000122070312 C-33.05099868774414,127.26399993896484 -41.875,105.96199798583984 -41.875,83.75 C-41.875,61.53799819946289 -33.05099868774414,40.236000061035156 -17.344999313354492,24.530000686645508 C-1.6390000581741333,8.824000358581543 19.663000106811523,0 41.875,0 C52.874000549316406,0.0010000000474974513 63.76499938964844,-2.1640000343322754 73.927001953125,-6.372000217437744 C84.08899688720703,-10.579999923706055 93.32099914550781,-16.75 101.0979995727539,-24.527000427246094 C108.875,-32.30400085449219 115.04499816894531,-41.5369987487793 119.25299835205078,-51.69900131225586z"/></g></g></g><g transform="matrix(0.9840237498283386,-0.17803728580474854,0.17803728580474854,0.9840237498283386,229.8921661376953,297.4350891113281)" opacity="1" style="display: block;"><g opacity="1" transform="matrix(1,0,0,1,0,0)"><path class="primary" fill="rgb(235,230,239)" fill-opacity="1" d=" M-22.902000427246094,15.302000045776367 C-25.929000854492188,10.772000312805176 -27.54400062561035,5.447999954223633 -27.54400062561035,0 C-27.54400062561035,0 -27.54400062561035,0 -27.54400062561035,0 C-27.54400062561035,-7.304999828338623 -24.641000747680664,-14.310999870300293 -19.47599983215332,-19.47599983215332 C-14.310999870300293,-24.641000747680664 -7.304999828338623,-27.54400062561035 0,-27.54400062561035 C5.447999954223633,-27.54400062561035 10.772000312805176,-25.929000854492188 15.302000045776367,-22.902000427246094 C19.832000732421875,-19.875 23.36199951171875,-15.572999954223633 25.44700050354004,-10.539999961853027 C27.531999588012695,-5.506999969482422 28.07699966430664,0.029999999329447746 27.013999938964844,5.373000144958496 C25.951000213623047,10.715999603271484 23.327999114990234,15.62399959564209 19.47599983215332,19.47599983215332 C15.62399959564209,23.327999114990234 10.715999603271484,25.951000213623047 5.373000144958496,27.013999938964844 C0.029999999329447746,28.07699966430664 -5.506999969482422,27.531999588012695 -10.539999961853027,25.44700050354004 C-15.572999954223633,23.36199951171875 -19.875,19.832000732421875 -22.902000427246094,15.302000045776367z"/></g></g><g transform="matrix(0.9840237498283386,-0.17803728580474854,0.17803728580474854,0.9840237498283386,200.0709228515625,132.61111450195312)" opacity="1" style="display: block;"><g opacity="1" transform="matrix(1,0,0,1,0,0)"><path class="secondary" fill="rgb(58,51,71)" fill-opacity="1" d=" M-22.902000427246094,15.302000045776367 C-25.929000854492188,10.772000312805176 -27.54400062561035,5.447999954223633 -27.54400062561035,0 C-27.54400062561035,0 -27.54400062561035,0 -27.54400062561035,0 C-27.54400062561035,-7.304999828338623 -24.641000747680664,-14.310999870300293 -19.47599983215332,-19.47599983215332 C-14.310999870300293,-24.641000747680664 -7.304999828338623,-27.54400062561035 0,-27.54400062561035 C5.447999954223633,-27.54400062561035 10.772000312805176,-25.929000854492188 15.302000045776367,-22.902000427246094 C19.832000732421875,-19.875 23.36199951171875,-15.572999954223633 25.44700050354004,-10.539999961853027 C27.531999588012695,-5.506999969482422 28.07699966430664,0.029999999329447746 27.013999938964844,5.373000144958496 C25.951000213623047,10.715999603271484 23.327999114990234,15.62399959564209 19.47599983215332,19.47599983215332 C15.62399959564209,23.327999114990234 10.715999603271484,25.951000213623047 5.373000144958496,27.013999938964844 C0.029999999329447746,28.07699966430664 -5.506999969482422,27.531999588012695 -10.539999961853027,25.44700050354004 C-15.572999954223633,23.36199951171875 -19.875,19.832000732421875 -22.902000427246094,15.302000045776367z"/></g></g></g><g clip-path="url(#__lottie_element_93)" transform="matrix(1,0,0,1,0,0)" opacity="1" style="display: block;"><g transform="matrix(0.8773722648620605,-0.5098673701286316,0.5098673701286316,0.8773722648620605,243.1587371826172,198.57467651367188)" opacity="1" style="display: block;"><g opacity="1" transform="matrix(1,0,0,1,0,0)"><path class="secondary" fill="rgb(58,51,71)" fill-opacity="1" d=" M-32.05400085449219,167.35400390625 C60.37300109863281,167.35400390625 135.2989959716797,92.427001953125 135.2989959716797,0 C135.2989959716797,-92.427001953125 60.37300109863281,-167.35400390625 -32.05400085449219,-167.35400390625 C-61.63100051879883,-167.35400390625 -66.33899688720703,-100.79199981689453 -81.52200317382812,-78.57499694824219 C-113.78500366210938,-31.36400032043457 -135.2989959716797,-7.823999881744385 -135.2989959716797,-7.823999881744385 C-135.2989959716797,84.60299682617188 -124.48100280761719,167.35400390625 -32.05400085449219,167.35400390625z"/></g></g><g mask="url(#__lottie_element_103_2)" style="mix-blend-mode: multiply; display: block;"><g transform="matrix(0.8773722648620605,-0.5098673701286316,0.5098673701286316,0.8773722648620605,243.1587371826172,198.57467651367188)" opacity="0.5"><g opacity="1" transform="matrix(1,0,0,1,0,0)"><path class="secondary" fill="rgb(58,51,71)" fill-opacity="1" d=" M-32.05400085449219,167.35400390625 C60.37300109863281,167.35400390625 135.2989959716797,92.427001953125 135.2989959716797,0 C135.2989959716797,-92.427001953125 60.37300109863281,-167.35400390625 -32.05400085449219,-167.35400390625 C-61.63100051879883,-167.35400390625 -66.33899688720703,-100.79199981689453 -81.52200317382812,-78.57499694824219 C-113.78500366210938,-31.36400032043457 -135.2989959716797,-7.823999881744385 -135.2989959716797,-7.823999881744385 C-135.2989959716797,84.60299682617188 -124.48100280761719,167.35400390625 -32.05400085449219,167.35400390625z"/></g></g></g><g transform="matrix(0.8773554563522339,-0.5097346901893616,0.5097346901893616,0.8773554563522339,178.216796875,236.42002868652344)" opacity="1" style="display: block;"><g opacity="1" transform="matrix(1,0,0,1,0,0)"><path class="primary" fill="rgb(235,230,239)" fill-opacity="1" d=" M86.12007904052734,-51.69900131225586 C88.52630615234375,-61.861000061035156 89.76448059082031,-72.7509994506836 89.76390838623047,-83.75 C89.76390838623047,-83.75 89.76390838623047,-83.75 89.76390838623047,-83.75 C89.76448059082031,-94.7490005493164 88.52630615234375,-105.63899993896484 86.12007904052734,-115.8010025024414 C83.71385955810547,-125.96299743652344 80.18629455566406,-135.1959991455078 75.73934936523438,-142.97300720214844 C71.29240417480469,-150.75 66.0137710571289,-156.9199981689453 60.20296096801758,-161.1280059814453 C54.39215087890625,-165.33599853515625 48.64284133911133,-167.54086303710938 41.875,-167.5 C-2.483839273452759,-165.92543029785156 -45.15399932861328,-149.8520050048828 -76.56600189208984,-118.44000244140625 C-107.97799682617188,-87.02799987792969 -125.625,-44.42399978637695 -125.625,0 C-125.625,44.42399978637695 -107.97799682617188,87.02799987792969 -76.56600189208984,118.44000244140625 C-45.15399932861328,149.8520050048828 -2.5490000247955322,167.5 41.875,167.5 C29.164026260375977,167.50343322753906 16.99395179748535,158.67599487304688 8.01322078704834,142.97000122070312 C-0.9675119519233704,127.26399993896484 -6.013050079345703,105.96199798583984 -6.013050079345703,83.75 C-6.013050079345703,61.53799819946289 -0.9675119519233704,40.236000061035156 8.01322078704834,24.530000686645508 C16.99395179748535,8.824000358581543 29.17474365234375,0 41.87542724609375,0 C48.16485595703125,0.0010000000474974513 54.39215087890625,-2.1640000343322754 60.20296096801758,-6.372000217437744 C66.0137710571289,-10.579999923706055 71.29240417480469,-16.75 75.73934936523438,-24.527000427246094 C80.18629455566406,-32.30400085449219 83.71385955810547,-41.5369987487793 86.12007904052734,-51.69900131225586z"/></g></g><g mask="url(#__lottie_element_113_2)" style="mix-blend-mode: multiply; display: block;"><g transform="matrix(0.8773554563522339,-0.5097346901893616,0.5097346901893616,0.8773554563522339,178.216796875,236.42002868652344)" opacity="0.5"><g opacity="1" transform="matrix(1,0,0,1,0,0)"><path class="primary" fill="rgb(235,230,239)" fill-opacity="1" d=" M44.334598541259766,-51.69900131225586 C44.46851348876953,-61.861000061035156 44.53782653808594,-72.7509994506836 44.53779602050781,-83.75 C44.53779602050781,-83.75 44.53779602050781,-83.75 44.53779602050781,-83.75 C44.53782653808594,-94.7490005493164 44.46851348876953,-105.63899993896484 44.334598541259766,-115.8010025024414 C44.200687408447266,-125.96299743652344 44.00562286376953,-135.1959991455078 43.758365631103516,-142.97300720214844 C43.511104583740234,-150.75 43.2182502746582,-156.9199981689453 42.89493179321289,-161.1280059814453 C42.57160949707031,-165.33599853515625 43.306732177734375,-167.5911407470703 41.875,-167.5 C-2.4016621112823486,-163.9396514892578 -45.15399932861328,-149.8520050048828 -76.56600189208984,-118.44000244140625 C-107.97799682617188,-87.02799987792969 -125.625,-44.42399978637695 -125.625,0 C-125.625,44.42399978637695 -107.97799682617188,87.02799987792969 -76.56600189208984,118.44000244140625 C-45.15399932861328,149.8520050048828 -2.5490000247955322,167.5 41.875,167.5 C41.146217346191406,167.50775146484375 40.49284744262695,158.67599487304688 39.9936637878418,142.97000122070312 C39.494483947753906,127.26399993896484 39.214141845703125,105.96199798583984 39.214141845703125,83.75 C39.214141845703125,61.53799819946289 39.494483947753906,40.236000061035156 39.9936637878418,24.530000686645508 C40.49284744262695,8.824000358581543 41.17045211791992,0 41.87596893310547,0 C42.225929260253906,0.0010000000474974513 42.57160949707031,-2.1640000343322754 42.89493179321289,-6.372000217437744 C43.2182502746582,-10.579999923706055 43.511104583740234,-16.75 43.758365631103516,-24.527000427246094 C44.00562286376953,-32.30400085449219 44.200687408447266,-41.5369987487793 44.334598541259766,-51.69900131225586z"/></g></g></g><g transform="matrix(1,0,0,1,215.11898803710938,298.8699951171875)" opacity="1" style="display: none;"><g opacity="1" transform="matrix(1,0,0,1,0,0)"><path class="primary" fill="rgb(235,230,239)" fill-opacity="1" d=" M0,27.54400062561035 C-15.210000038146973,27.54400062561035 -27.54400062561035,15.210000038146973 -27.54400062561035,0 C-27.54400062561035,-15.210000038146973 -15.210000038146973,-27.54400062561035 0,-27.54400062561035 C15.210000038146973,-27.54400062561035 27.54400062561035,-15.210000038146973 27.54400062561035,0 C27.54400062561035,15.210000038146973 15.210000038146973,27.54400062561035 0,27.54400062561035z"/></g></g><g transform="matrix(1,0,0,1,215.11898803710938,131.3699951171875)" opacity="1" style="display: none;"><g opacity="1" transform="matrix(1,0,0,1,0,0)"><path class="secondary" fill="rgb(58,51,71)" fill-opacity="1" d=" M0,27.54400062561035 C-15.210000038146973,27.54400062561035 -27.54400062561035,15.210000038146973 -27.54400062561035,0 C-27.54400062561035,-15.210000038146973 -15.210000038146973,-27.54400062561035 0,-27.54400062561035 C15.210000038146973,-27.54400062561035 27.54400062561035,-15.210000038146973 27.54400062561035,0 C27.54400062561035,15.210000038146973 15.210000038146973,27.54400062561035 0,27.54400062561035z"/></g></g></g></g></svg>